<?xml version="1.0"?>
<svg xmlns:rdf="http://www.w3.org/1999/02/22-rdf-syntax-ns#" xmlns="http://www.w3.org/2000/svg" xmlns:cc="http://web.resource.org/cc/" xmlns:xlink="http://www.w3.org/1999/xlink" xmlns:dc="http://purl.org/dc/elements/1.1/" xmlns:svg="http://www.w3.org/2000/svg" id="Layer_1" version="1.1" xml:space="preserve" viewBox="0 0 249.456 333.753" enable-background="new 0 0 249.456 333.753" y="0px" x="0px">
<g id="g47" transform="translate(0 -.0000052257)" fill="#1072BA">
	<path id="path49" d="m75.465 246.45s1.904 5.947 0.714 8.566c-1.19 2.621 99.042 1.43 99.042 1.43s-0.475-6.668 0.479-8.332c0.951-1.664 0.236-1.188 0.236-1.188l-100.48-0.48z"/>
	<path id="path51" d="m86.416 236.45s18.569-50.951 18.569-52.615c0-1.666 2.383-1.432 2.383-1.432l-12.611 54.28-8.333-0.24z"/>
	<polygon id="polygon53" points="101.65 178.84 105.7 176.46 148.32 177.17 152.13 178.6 152.6 176.46 148.56 175.03 106.42 174.55 101.18 175.74"/>
	<path id="path55" d="m108.08 171.93l5.236 0.715 10.717-134.04-2.145 1.428s-4.047 51.664-4.047 53.807-9.29 77.385-9.77 78.095z"/>
	<path id="path57" d="m127.13 20.151l3.568 0.238s-0.713-17.619-0.951-19.285c-0.236-1.666-1.191-0.953-1.191-0.953l-1.43 20z"/>
	<path id="path59" d="m122.37 26.7c-0.521 0.484 5.238-10.715 12.619-1.67l-0.061 2.264c-0.01 0-5.78-6.904-12.56-0.594z"/>
	<path id="path61" d="m120.4 30.091l0.119 3.217 2.916-2.5h10.416l0.357 5.715s1.963-3.098 2.439-3.453c0.477-0.357 0.537-2.918 0.537-2.918l-2.322-2.26-11.965 0.117-2.52 2.082z"/>
	<path id="path63" d="m127.84 38.604l1.904-0.479s-1.428 124.28 3.57 133.8h-12.854c0 0.01 11.19-130.94 7.38-133.32z"/>
	<path id="path65" d="m104.27 236.69l3.095 0.236s9.522-42.854 9.284-42.379c-0.236 0.479-2.381-0.234-2.381-0.234s-9.27 41.9-9.99 42.37z"/>
	<path id="path67" d="m135.94 195.26c0.713 0 2.381 0.477 2.381 0.477s13.572 37.379 14.285 39.76c0.715 2.381 0.715 1.666 0.715 1.666l-6.902 0.238-10.48-42.15z"/>
	<path id="path69" d="m148.56 183.36c0 0.715 16.666 53.332 16.666 53.332l-3.572 0.715s-17.381-53.568-18.096-53.568c-0.72 0.01 5-0.47 5-0.47z"/>
	<path id="path71" d="m137.84 171.93h7.141s-11.189-127.61-11.189-128.57c0.01-0.947 3.58 127.86 4.05 128.57z"/>
	<path id="path73" d="m103.68 179.55s0.952 1.07 0.836 1.666c-0.121 0.598 44.398 0.717 44.398 0.717s0.479-1.312 0.834-1.551c0.35-0.25-46.07-0.84-46.07-0.84z"/>
	<path id="path75" d="m76.06 237.29c0.357 0 99.757 0.713 99.757 0.713s-0.953 1.547-0.953 2.5-95.948-0.236-96.305 0.477c-0.362 0.71-2.505-3.69-2.505-3.69z"/>
	<path id="path77" d="m75.108 257.4c-0.119 0.355-26.191 38.213-26.191 38.213s2.977 2.736 3.334 2.617 17.857-28.332 18.69-28.451c0.832-0.117 6.07-9.998 5.713-10.596-0.357-0.58-1.546-1.78-1.546-1.78z"/>
	<path id="path79" d="m79.273 320.97c0-0.479 6.546-21.07 18.212-29.283 11.668-8.215 21.072-9.645 22.145-9.764 1.07-0.119 11.068-0.119 15.594 0.832 4.523 0.951 18.93 9.168 20 10.598 1.072 1.43 7.5 10.475 9.047 12.736 1.547 2.264 4.404 11.07 5.117 15.832 0.717 4.764 1.074 7.023 1.074 7.023s-2.025-17.498-0.479-18.332 3.689-1.666 3.689-1.666-8.213-15.596-22.854-27.023c-14.645-11.43-62.618-14.166-72.498 38.928l0.951 0.11z"/>
	<path id="path81" d="m177.36 259.78s24.525 36.904 24.762 37.619c0.238 0.713-5.477 3.449-5.477 3.449l-20.594-40.709 1.31-0.36z"/>
	<path id="path83" d="m76.685 270.44c-0.448 0.627-3.037 5-3.037 5l-2.499-3.926 5.536-1.07z"/>
	<path id="path85" d="m63.649 283.56c0.267-0.088 4.375 0.088 4.375 0.088l2.857-4.908-7.232 4.82z"/>
	<path id="path87" d="m61.953 285.88l4.375 0.357-3.304 4.555-1.25-4.643s0.268-0.46 0.179-0.28z"/>
	<polygon id="polygon89" points="79.542 282.76 82.665 278.29 76.06 277.67"/>
	<polygon id="polygon91" points="77.845 275.62 84.272 275.97 86.774 271.42"/>
	<polygon id="polygon93" points="79.273 269.82 75.435 274.63 84.897 270.53"/>
	<polygon id="polygon95" points="77.398 287.14 74.185 291.78 66.149 291.96"/>
	<polygon id="polygon97" points="72.755 294.1 69.364 298.83 65.614 293.92"/>
	<polygon id="polygon99" points="63.381 294.63 67.131 299.63 56.238 297.67"/>
	<polygon id="polygon101" points="59.632 289.28 55.167 295.44 61.685 292.23"/>
	<polygon id="polygon103" points="73.917 279.1 70.524 283.65 77.221 283.65"/>
	<path id="path105" d="m108.69 186.74c0.312 0.359 1.564 2.143 1.564 2.143l0.49-3.838-2.05 1.7z"/>
	<path id="path107" d="m106.59 183.75l1.653 2.098 2.366-2.234-4.109-0.756s-1.693 6.783-1.562 6.828c0.136 0.047 4.152 0.133 4.152 0.133l-1.295-2.406-2.099 0.889 0.89-4.55z"/>
	<polygon id="polygon109" points="113.16 183.34 117.13 183.61 114.9 185.84"/>
	<polygon id="polygon111" points="114.5 187.23 111.95 189.68 115.61 189.68"/>
	<polygon id="polygon113" points="111.86 184.42 111.42 188.7 113.74 186.74"/>
	<path id="path115" d="m117.44 184.95c0 0.137-0.357 3.664-0.357 3.664l-1.605-1.877 1.96-1.78z"/>
	<polygon id="polygon117" points="119.18 184.64 118.42 188.88 121.32 186.87"/>
	<polygon id="polygon119" points="120.16 183.57 125.39 183.7 122.62 186.11"/>
	<path id="path121" d="m122.26 187.27c-0.18 0.137-2.947 2.365-2.947 2.365l5.625 0.225-2.678-2.725v0.13z"/>
	<polygon id="polygon123" points="123.52 186.65 126.06 189.28 126.28 184.15"/>
	<polygon id="polygon125" points="127.26 184.37 127.13 189.5 129.76 187.05"/>
	<polygon id="polygon127" points="128.11 190.08 130.92 187.63 134.14 190.04"/>
	<polygon id="polygon129" points="134.4 184.86 134.4 188.83 132.08 186.82"/>
	<polygon id="polygon131" points="139.14 195.4 143.56 198.08 143.51 195.22"/>
	<polygon id="polygon133" points="124.03 32.173 133.44 32.116 129.09 37.472"/>
	<path id="path135" d="m136.89 34.077c-0.18 0.299-2.619 4.287-2.619 4.287l0.297 9.049 0.654-5.654 1.369-1.848 0.3-5.834z"/>
	<path id="path137" d="m120.76 34.077s2.498 3.096 2.381 3.633c-0.119 0.535-1.666 1.549-1.666 1.549l-0.895-0.238 0.18-4.944z"/>
	<path id="path139" d="m117.78 208.54c0.18 0 17.68 0.357 17.68 0.357l3.984 27.139 4.049-0.059-7.916-29.76-17.914 1.191 0.12 1.13z"/>
	<path id="path141" d="m117.19 207.47c0 0.178-1.904 23.092-4.403 28.391l-2.38 0.061 6.188-28.449h0.596z"/>
	<polygon id="polygon143" points="118.26 199.37 117.66 204.79 134.69 205.14 135.22 199.96 134.75 199.9 133.97 203.6 119.69 203.54 119.15 199.61 127.84 199.49 131.24 199.55 118.2 198.3"/>
	<path id="path145" d="m138.38 196.99c0.475 0.178 5.475 3.035 5.475 3.035s-3.156 2.855-3.271 3.035c-0.13 0.18-2.21-6.07-2.21-6.07z"/>
	<polygon id="polygon147" points="140.46 205.14 144.51 201.87 145.28 205.5 140.4 205.5"/>
	<polygon id="polygon149" points="153.02 227.09 157.93 230.71 154.76 232.18"/>
	<path id="path151" d="m141.95 206.96c0.312 0.092 3.707 0.092 3.707 0.092l1.117 3.436-4.83-3.53z"/>
	<path id="path153" d="m109.23 199.86c0.045-0.135 4.867-2.902 4.867-2.902l-1.341 6.475-3.53-3.58z"/>
	<polygon id="polygon155" points="109.76 194.77 109.1 198.03 113.65 195"/>
	<polygon id="polygon157" points="108.11 195.22 103.92 194.59 107.22 198.03"/>
	<path id="path159" d="m103.24 196.96c0.227 0.178 3.259 2.725 3.259 2.725l-4.687 2.99 1.43-5.71z"/>
	<polygon id="polygon161" points="108.47 201.34 107.31 205.08 112.22 205.4"/>
	<polygon id="polygon163" points="111.42 208.61 105.79 212.32 109.81 216.02"/>
	<polygon id="polygon165" points="108.83 221.33 102.13 225.13 106.86 229.82"/>
	<path id="path167" d="m101.02 227.18c-0.135 0.18-3.215 8.705-3.215 8.705l6.74-3.752-3.52-4.95z"/>
	<polygon id="polygon169" points="104.68 214.1 102.26 222.58 107.4 219.77 108.16 217.09"/>
	<path id="path171" d="m106.28 202.23c-0.044 0.133-0.759 3.391-0.759 3.391l-4.465-0.623 5.22-2.77z"/>
	<path id="path173" d="m96.979 270.41l-1.832-2.912c-0.254-0.494-0.78-0.842-1.396-0.842-0.86 0-1.562 0.674-1.562 1.506 0 0.309 0.1 0.6 0.267 0.84 0.048 0.064 0.101 0.127 0.159 0.186l1.925 2.648 2.439-1.44z"/>
	<path id="path175" d="m100.67 268.81l-1.535-2.754c-0.207-0.469-0.678-0.812-1.248-0.848-0.803-0.053-1.492 0.518-1.539 1.271-0.02 0.283 0.057 0.555 0.197 0.783 0.039 0.062 0.088 0.119 0.137 0.176l1.638 2.525 2.35-1.15z"/>
	<path id="path177" d="m101.86 268.62l2.886-0.891s-1.188-3.365-2.707-2.471-1.577 1.07-0.209 3.303c1.37 2.24 0.03 0.06 0.03 0.06z"/>
	<path id="path179" d="m87.31 275.79c-0.004 0.107 2.291-1.426 2.291-1.426s-2.233-0.29-2.291 1.43z"/>
	<path id="path181" d="m90.673 273.71c0.237-0.205 2.471-1.518 2.471-1.518l-0.774-1.248s-2.856-0.984-2.589 1.514l0.892 1.26z"/>
	<path id="path183" d="m105.79 267.4l3.006-0.537-0.119-0.83s-2.023-1.729-2.977 0.385l0.09 0.98z"/>
	<path id="path185" d="m109.96 266.48l2.978-0.535c0 0.01-1.52-1.46-2.98 0.54z"/>
	<path id="path187" d="m101.3 206.03c0.598 0.182 3.395 0.717 3.395 0.717l-0.834 3.215-3.273-2.855 0.7-1.07z"/>
	<path id="path189" d="m100.46 209.07c-0.281 0.84 2.799 3.035 2.799 3.035l-4.049 1.963c0.003 0.01 1.309-5.17 1.249-4.99z"/>
	<path id="path191" d="m98.203 217.76c0.237 0 3.571 0.299 3.571 0.299l0.892-3.99-4.463 2.5 0.06 0.953 2.978 2.082-1.251 3.691-2.561-3.988 1.607 7.5-4.584 5.717 3.752-14.76z"/>
	<polygon id="polygon193" points="137.22 190.17 141.24 190 138.82 187.85"/>
	<polygon id="polygon195" points="74.899 267.85 89.54 268.3 96.417 257.76 88.202 265.53"/>
	<path id="path197" d="m142.75 266.69l2.947 0.891s-0.09-3.3-2.95-0.89z"/>
	<path id="path199" d="m164.36 272.58c0.18 0.357 2.322 4.375 2.322 4.375l7.32-0.268-6.252-1.16-3.39-2.95z"/>
	<path id="path201" d="m168.29 279.1c0.357 0.531 2.857 4.549 2.857 4.549l3.572-4.283-3.572 1.785-2.86-2.06z"/>
	<path id="path203" d="m173.29 287.76c0.27 0.447 3.035 4.912 3.035 4.912l4.107-0.092-3.572-1.338-3.57-3.48z"/>
	<path id="path205" d="m146.86 268.21l16.695 8.928s-13.658-11.516-15.09-11.428c-1.426 0.09-1.693 1.967-1.693 2.232"/>
	<polygon id="polygon207" points="142.93 210 147.13 212.76 144.54 215.8"/>
	<polygon id="polygon209" points="147.84 214.73 145.26 218.48 149.09 220"/>
	<polygon id="polygon211" points="148.56 225.62 152.22 229.82 150.34 231.6"/>
	<polygon id="polygon213" points="145.88 187.76 144.27 189.82 146.95 190.08"/>
	<path id="path215" d="m112.58 168.66c0.626 0.535 2.499 2.232 2.499 2.232l4.912-5.18-2.32-3.301-5.18 3.838 0.09 2.41z"/>
	<path id="path217" d="m113.92 158.39c0.268 0.445 2.143 3.66 2.143 3.66l-3.304 2.229 1.16-5.89z"/>
	<path id="path219" d="m113.74 153.57c0.268 0.537 3.393 4.912 3.393 4.912l4.105-4.195-3.033-4.465-4.47 3.75z"/>
	<polygon id="polygon221" points="114.27 151.52 116.95 148.48 114.27 145"/>
	<polygon id="polygon223" points="114.54 141.07 118.74 138.12 115.43 134.11"/>
	<polygon id="polygon225" points="116.06 124.82 115.08 130.98 119.81 127.77"/>
	<polygon id="polygon227" points="116.24 121.43 120.79 117.77 117.04 113.92 116.06 121.87"/>
	<polygon id="polygon229" points="117.22 111.52 117.31 111.96 122.04 108.3 117.66 104.46"/>
	<polygon id="polygon231" points="118.65 94.911 117.84 102.59 122.04 99.552"/>
	<polygon id="polygon233" points="119 93.931 122.58 90.894 119.18 87.499"/>
	<polygon id="polygon235" points="119.63 86.071 123.11 83.659 119.9 80.089"/>
	<polygon id="polygon237" points="120.08 79.017 123.56 76.249 120.43 72.591"/>
	<polygon id="polygon239" points="120.61 71.876 123.56 69.911 121.06 66.339"/>
	<polygon id="polygon241" points="121.32 65.358 124.18 63.124 121.86 60.983"/>
	<path id="path243" d="m121.77 59.646l2.502-1.877s-1.875-2.855-1.875-2.498c0 0.355-0.63 4.375-0.63 4.375z"/>
	<polygon id="polygon245" points="122.04 53.839 124.81 52.411 122.4 49.644"/>
	<polygon id="polygon247" points="122.84 49.11 125.08 47.413 122.84 45.001"/>
	<polygon id="polygon249" points="123.38 44.021 124.98 43.036 123.82 41.071"/>
	<path id="path251" d="m116.65 145.03c0.357 0.238 1.549 2.738 1.549 2.738l3.809-4.408-3.215-0.234-1.904-2.502-0.25 4.4z"/>
	<polygon id="polygon253" points="117.37 134.08 119.51 136.7 122.37 134.19 119.99 133.96 117.96 130.74 117.13 130.98"/>
	<polygon id="polygon255" points="118.08 124.19 120.58 126.57 122.96 123.84 120.11 123.6 119.27 120.27 118.08 120.98"/>
	<polygon id="polygon257" points="119.03 113.96 121.89 116.82 123.56 115.86 121.18 114.2 122.96 109.55 118.92 112.53"/>
	<polygon id="polygon259" points="122.48 107.17 119.51 105.03 119.63 103.36 123.2 100.39 122.01 103.48"/>
	<path id="path261" d="m249.46 273.4c-2.689-1.398-6.221-2.854-10.9-4.393-13.572-4.463-10 10.533-10 10.533-16.605-6.604-24.998 11.965-24.998 11.965-14.107-3.75-23.572 14.465-23.572 14.465-25.178 2.678-15.533 27.5-15.533 27.5l4.09 0.281c0.229-7.016 3.598-15.07 17.338-16.535 0 0 9.463-18.211 23.568-14.461 0 0 8.395-18.57 25.002-11.963 0 0-3.572-15.002 9.998-10.535 1.842 0.604 3.5 1.195 5.008 1.777v-8.62h-0.01z"/>
	<path id="path263" d="m83.108 315.88c0.952-3.096-4.049-6.189-4.049-6.189-2.38-5.477-28.212-10.355-28.212-10.355-8.214-11.783-32.498-12.023-32.498-12.023-4.621-11.66-15.748-7.79-18.349-7.21v11.432c3.978-0.971 12.905-2.566 16.92 7.562 0 0 24.285 0.238 32.499 12.025 0 0 25.341 5.33 28.436 10.15 0 0 1.606 1.338 2.84 2.92h4.793c-0.009-5.45-3.331-5.21-2.38-8.31z"/>
	<path id="path265" d="m185.95 310.26c-61.834-102.49-122.21-0.004-121.32-1.072 61.895-74.328 100.75-23.41 114.27 1.072h7.05z"/>
</g>
<metadata><rdf:RDF><cc:Work><dc:format>image/svg+xml</dc:format><dc:type rdf:resource="http://purl.org/dc/dcmitype/StillImage"/><cc:license rdf:resource="http://creativecommons.org/licenses/publicdomain/"/><dc:publisher><cc:Agent rdf:about="http://openclipart.org/"><dc:title>Openclipart</dc:title></cc:Agent></dc:publisher><dc:title> Eiffel tower -Paris</dc:title><dc:date>2008-10-01T16:57:08</dc:date><dc:description>building, building, clip art, clipart, eiffel, eiffel, image, landmark, landmark, landmarks, landmarks, liberty, liberty, media, opera, opera, outline, outline, public domain, pyramids, pyramids, silhouette, silhouette, statue, statue, svg, sydney, sydney, taj mahal, taj mahal, tour eiffel, tour eiffel, tower, tower, </dc:description><dc:source>http://openclipart.org/detail/23247/eiffel-tower--paris-by-shokunin</dc:source><dc:creator><cc:Agent><dc:title>shokunin</dc:title></cc:Agent></dc:creator><dc:subject><rdf:Bag><rdf:li>building</rdf:li><rdf:li>clip art</rdf:li><rdf:li>clipart</rdf:li><rdf:li>eiffel</rdf:li><rdf:li>image</rdf:li><rdf:li>landmark</rdf:li><rdf:li>landmarks</rdf:li><rdf:li>liberty</rdf:li><rdf:li>media</rdf:li><rdf:li>opera</rdf:li><rdf:li>outline</rdf:li><rdf:li>public domain</rdf:li><rdf:li>pyramids</rdf:li><rdf:li>silhouette</rdf:li><rdf:li>statue</rdf:li><rdf:li>svg</rdf:li><rdf:li>sydney</rdf:li><rdf:li>taj mahal</rdf:li><rdf:li>tour eiffel</rdf:li><rdf:li>tower</rdf:li></rdf:Bag></dc:subject></cc:Work><cc:License rdf:about="http://creativecommons.org/licenses/publicdomain/"><cc:permits rdf:resource="http://creativecommons.org/ns#Reproduction"/><cc:permits rdf:resource="http://creativecommons.org/ns#Distribution"/><cc:permits rdf:resource="http://creativecommons.org/ns#DerivativeWorks"/></cc:License></rdf:RDF></metadata></svg>
